# xmcd
#
# Track frame offsets: 
#        150
#        33592
#        51762
#        81797
#        100125
#        128705
#        146400
#        169125
#        195710
#        220890
#        240962
#        256780
#
# Disc length: 3701 seconds
#
# Revision: 1
# Processed by: cddbd v1.5.2PL0 Copyright (c) Steve Scherf et al.
# Submitted via: ExactAudioCopy v0.99pb4
#
DISCID=9d0e730c
DTITLE=Аркадий Северный - В Одесском Кабачке
DYEAR=1994
DGENRE=Chanson
TTITLE0=Никто Не Спорь Со Мной
TTITLE1=Четыре Брата
TTITLE2=Хаим, Мой Милый Хаим
TTITLE3=Гоп Со Смыком
TTITLE4=Луною Озарились Хрустальные Воды
TTITLE5=Всюду Деньги, Деньги
TTITLE6=Пиковая Дама
TTITLE7=Алеша, Ша
TTITLE8=Шарабан Мой, Американка
TTITLE9=Школа Соломона Пляра
TTITLE10=Прости-Прощай, Одесса-Мама
TTITLE11=Два Громилы
EXTD=
EXTT0=
EXTT1=
EXTT2=
EXTT3=
EXTT4=
EXTT5=
EXTT6=
EXTT7=
EXTT8=
EXTT9=
EXTT10=
EXTT11=
PLAYORDER=
